ffmpeg version 6.1.1-3ubuntu5 Copyright (c) 2000-2023 the FFmpeg developers
  built with gcc 13 (Ubuntu 13.2.0-23ubuntu3)
  configuration: --prefix=/usr --extra-version=3ubuntu5 --toolchain=hardened --libdir=/usr/lib/x86_64-linux-gnu --incdir=/usr/include/x86_64-linux-gnu --arch=amd64 --enable-gpl --disable-stripping --disable-omx --enable-gnutls --enable-libaom --enable-libass --enable-libbs2b --enable-libcaca --enable-libcdio --enable-libcodec2 --enable-libdav1d --enable-libflite --enable-libfontconfig --enable-libfreetype --enable-libfribidi --enable-libglslang --enable-libgme --enable-libgsm --enable-libharfbuzz --enable-libmp3lame --enable-libmysofa --enable-libopenjpeg --enable-libopenmpt --enable-libopus --enable-librubberband --enable-libshine --enable-libsnappy --enable-libsoxr --enable-libspeex --enable-libtheora --enable-libtwolame --enable-libvidstab --enable-libvorbis --enable-libvpx --enable-libwebp --enable-libx265 --enable-libxml2 --enable-libxvid --enable-libzimg --enable-openal --enable-opencl --enable-opengl --disable-sndio --enable-libvpl --disable-libmfx --enable-libdc1394 --enable-libdrm --enable-libiec61883 --enable-chromaprint --enable-frei0r --enable-ladspa --enable-libbluray --enable-libjack --enable-libpulse --enable-librabbitmq --enable-librist --enable-libsrt --enable-libssh --enable-libsvtav1 --enable-libx264 --enable-libzmq --enable-libzvbi --enable-lv2 --enable-sdl2 --enable-libplacebo --enable-librav1e --enable-pocketsphinx --enable-librsvg --enable-libjxl --enable-shared
  libavutil      58. 29.100 / 58. 29.100
  libavcodec     60. 31.102 / 60. 31.102
  libavformat    60. 16.100 / 60. 16.100
  libavdevice    60.  3.100 / 60.  3.100
  libavfilter     9. 12.100 /  9. 12.100
  libswscale      7.  5.100 /  7.  5.100
  libswresample   4. 12.100 /  4. 12.100
  libpostproc    57.  3.100 / 57.  3.100
[x11grab @ 0x55e4ae460480] Stream #0: not enough frames to estimate rate; consider increasing probesize
Input #0, x11grab, from ':99':
  Duration: N/A, start: 1781038600.923965, bitrate: 884736 kb/s
  Stream #0:0: Video: rawvideo (BGR[0] / 0x524742), bgr0, 1280x720, 884736 kb/s, 30 fps, 1000k tbr, 1000k tbn
Stream mapping:
  Stream #0:0 -> #0:0 (rawvideo (native) -> h264 (libx264))
Press [q] to stop, [?] for help
[libx264 @ 0x55e4ae4691c0] using cpu capabilities: MMX2 SSE2Fast SSSE3 SSE4.2 AVX FMA3 BMI2 AVX2 AVX512
[libx264 @ 0x55e4ae4691c0] profile Constrained Baseline, level 3.1, 4:2:0, 8-bit
[libx264 @ 0x55e4ae4691c0] 264 - core 164 r3108 31e19f9 - H.264/MPEG-4 AVC codec - Copyleft 2003-2023 - http://www.videolan.org/x264.html - options: cabac=0 ref=1 deblock=0:0:0 analyse=0:0 me=dia subme=0 psy=1 psy_rd=1.00:0.00 mixed_ref=0 me_range=16 chroma_me=1 trellis=0 8x8dct=0 cqm=0 deadzone=21,11 fast_pskip=1 chroma_qp_offset=0 threads=6 lookahead_threads=1 sliced_threads=0 nr=0 decimate=1 interlaced=0 bluray_compat=0 constrained_intra=0 bframes=0 weightp=0 keyint=250 keyint_min=25 scenecut=0 intra_refresh=0 rc=crf mbtree=0 crf=23.0 qcomp=0.60 qpmin=0 qpmax=69 qpstep=4 ip_ratio=1.40 aq=0
Output #0, mp4, to '../../evidence/participant.mp4':
  Metadata:
    encoder         : Lavf60.16.100
  Stream #0:0: Video: h264 (avc1 / 0x31637661), yuv420p(tv, progressive), 1280x720, q=2-31, 30 fps, 15360 tbn
    Metadata:
      encoder         : Lavc60.31.102 libx264
    Side data:
      cpb: bitrate max/min/avg: 0/0/0 buffer size: 0 vbv_delay: N/A
frame=    0 fps=0.0 q=0.0 size=       0kB time=N/A bitrate=N/A speed=N/A    frame=   10 fps=0.0 q=13.0 size=       0kB time=00:00:00.33 bitrate=   1.2kbits/s speed=0.667x    frame=   26 fps= 25 q=13.0 size=       0kB time=00:00:00.86 bitrate=   0.4kbits/s speed=0.839x    frame=   42 fps= 27 q=13.0 size=       0kB time=00:00:01.40 bitrate=   0.3kbits/s speed=0.894x    frame=   57 fps= 28 q=13.0 size=       0kB time=00:00:01.90 bitrate=   0.2kbits/s speed=0.919x    frame=   74 fps= 28 q=13.0 size=       0kB time=00:00:02.43 bitrate=   0.2kbits/s speed=0.936x    frame=   89 fps= 28 q=22.0 size=       0kB time=00:00:02.96 bitrate=   0.1kbits/s speed=0.947x    frame=  104 fps= 29 q=13.0 size=       0kB time=00:00:03.46 bitrate=   0.1kbits/s speed=0.954x    frame=  119 fps= 29 q=22.0 size=       0kB time=00:00:03.96 bitrate=   0.1kbits/s speed=0.96x    frame=  135 fps= 29 q=20.0 size=     256kB time=00:00:04.50 bitrate= 466.1kbits/s speed=0.965x    frame=  150 fps= 29 q=17.0 size=     256kB time=00:00:05.00 bitrate= 419.5kbits/s speed=0.968x    frame=  166 fps= 29 q=18.0 size=     256kB time=00:00:05.53 bitrate= 379.1kbits/s speed=0.971x    frame=  182 fps= 29 q=17.0 size=     512kB time=00:00:06.06 bitrate= 691.4kbits/s speed=0.974x    frame=  197 fps= 29 q=17.0 size=     512kB time=00:00:06.56 bitrate= 638.8kbits/s speed=0.974x    frame=  213 fps= 29 q=17.0 size=     512kB time=00:00:07.10 bitrate= 590.8kbits/s speed=0.977x    frame=  228 fps= 29 q=24.0 size=     768kB time=00:00:07.60 bitrate= 827.9kbits/s speed=0.978x    frame=  244 fps= 29 q=20.0 size=     768kB time=00:00:08.13 bitrate= 773.6kbits/s speed=0.98x    frame=  259 fps= 29 q=14.0 size=    1024kB time=00:00:08.63 bitrate= 971.7kbits/s speed=0.981x    frame=  275 fps= 29 q=19.0 size=    1024kB time=00:00:09.16 bitrate= 915.2kbits/s speed=0.982x    frame=  291 fps= 29 q=13.0 size=    1280kB time=00:00:09.70 bitrate=1081.0kbits/s speed=0.983x    frame=  307 fps= 30 q=19.0 size=    1280kB time=00:00:10.23 bitrate=1024.7kbits/s speed=0.984x    frame=  323 fps= 30 q=22.0 size=    1536kB time=00:00:10.76 bitrate=1168.7kbits/s speed=0.985x    frame=  338 fps= 30 q=21.0 size=    1792kB time=00:00:11.26 bitrate=1303.0kbits/s speed=0.985x    frame=  354 fps= 30 q=17.0 size=    1792kB time=00:00:11.80 bitrate=1244.1kbits/s speed=0.986x    frame=  369 fps= 30 q=18.0 size=    2048kB time=00:00:12.30 bitrate=1364.0kbits/s speed=0.987x    frame=  385 fps= 30 q=22.0 size=    2304kB time=00:00:12.83 bitrate=1470.8kbits/s speed=0.987x    frame=  401 fps= 30 q=18.0 size=    2560kB time=00:00:13.36 bitrate=1569.0kbits/s speed=0.988x    frame=  416 fps= 30 q=18.0 size=    2560kB time=00:00:13.86 bitrate=1512.4kbits/s speed=0.988x    frame=  432 fps= 30 q=17.0 size=    2816kB time=00:00:14.40 bitrate=1602.0kbits/s speed=0.989x    frame=  447 fps= 30 q=20.0 size=    3072kB time=00:00:14.90 bitrate=1689.0kbits/s speed=0.989x    frame=  463 fps= 30 q=22.0 size=    3072kB time=00:00:15.43 bitrate=1630.6kbits/s speed=0.989x    frame=  478 fps= 30 q=21.0 size=    3328kB time=00:00:15.93 bitrate=1711.1kbits/s speed=0.99x    frame=  494 fps= 30 q=17.0 size=    3584kB time=00:00:16.46 bitrate=1783.0kbits/s speed=0.99x    frame=  510 fps= 30 q=16.0 size=    3840kB time=00:00:17.00 bitrate=1850.5kbits/s speed=0.99x    frame=  525 fps= 30 q=19.0 size=    3840kB time=00:00:17.50 bitrate=1797.6kbits/s speed=0.991x    frame=  541 fps= 30 q=19.0 size=    4096kB time=00:00:18.03 bitrate=1860.7kbits/s speed=0.991x    frame=  557 fps= 30 q=15.0 size=    4352kB time=00:00:18.56 bitrate=1920.2kbits/s speed=0.991x    frame=  572 fps= 30 q=24.0 size=    4352kB time=00:00:19.06 bitrate=1869.9kbits/s speed=0.991x    frame=  587 fps= 30 q=17.0 size=    4352kB time=00:00:19.56 bitrate=1822.1kbits/s speed=0.992x    frame=  603 fps= 30 q=16.0 size=    4608kB time=00:00:20.10 bitrate=1878.1kbits/s speed=0.992x    frame=  618 fps= 30 q=13.0 size=    4608kB time=00:00:20.60 bitrate=1832.5kbits/s speed=0.992x    frame=  634 fps= 30 q=13.0 size=    4608kB time=00:00:21.13 bitrate=1786.2kbits/s speed=0.992x    [out#0/mp4 @ 0x55e4ae467a00] video:4682kB audio:0kB subtitle:0kB other streams:0kB global headers:0kB muxing overhead: 0.072649%
frame=  644 fps= 30 q=-1.0 Lsize=    4685kB time=00:00:21.43 bitrate=1790.8kbits/s speed=   1x    
[libx264 @ 0x55e4ae4691c0] frame I:3     Avg QP:17.00  size: 65713
[libx264 @ 0x55e4ae4691c0] frame P:641   Avg QP:17.26  size:  7171
[libx264 @ 0x55e4ae4691c0] mb I  I16..4: 100.0%  0.0%  0.0%
[libx264 @ 0x55e4ae4691c0] mb P  I16..4: 10.1%  0.0%  0.0%  P16..4: 10.5%  0.0%  0.0%  0.0%  0.0%    skip:79.3%
[libx264 @ 0x55e4ae4691c0] coded y,uvDC,uvAC intra: 16.5% 19.4% 9.8% inter: 2.9% 8.4% 1.9%
[libx264 @ 0x55e4ae4691c0] i16 v,h,dc,p: 72% 27%  1%  0%
[libx264 @ 0x55e4ae4691c0] i8c dc,h,v,p: 68% 16% 13%  2%
[libx264 @ 0x55e4ae4691c0] kb/s:1786.47
Exiting normally, received signal 2.
